<svg id="Слой_3" data-name="Слой 3" xmlns="http://www.w3.org/2000/svg" xmlns:xlink="http://www.w3.org/1999/xlink" viewBox="0 0 561.45 552.6"><defs><style>.cls-1{fill:#7ac5e5;}.cls-2,.cls-70{fill:#a84b44;}.cls-12,.cls-13,.cls-14,.cls-15,.cls-16,.cls-17,.cls-18,.cls-19,.cls-20,.cls-21,.cls-22,.cls-23,.cls-24,.cls-25,.cls-26,.cls-27,.cls-28,.cls-29,.cls-3,.cls-30,.cls-31,.cls-32,.cls-33,.cls-34,.cls-35,.cls-36,.cls-37,.cls-38,.cls-39,.cls-40,.cls-41,.cls-42,.cls-43,.cls-44,.cls-45,.cls-46,.cls-47,.cls-48,.cls-49,.cls-5,.cls-50,.cls-51,.cls-52,.cls-53,.cls-54,.cls-55,.cls-56,.cls-57,.cls-58,.cls-59,.cls-6,.cls-60,.cls-61,.cls-62,.cls-66,.cls-67,.cls-68{fill:none;}.cls-3,.cls-69{stroke:#e8dd61;}.cls-12,.cls-13,.cls-14,.cls-15,.cls-16,.cls-17,.cls-18,.cls-19,.cls-20,.cls-21,.cls-22,.cls-23,.cls-24,.cls-25,.cls-26,.cls-27,.cls-28,.cls-29,.cls-3,.cls-30,.cls-31,.cls-32,.cls-33,.cls-34,.cls-35,.cls-36,.cls-37,.cls-38,.cls-39,.cls-40,.cls-41,.cls-42,.cls-43,.cls-44,.cls-45,.cls-46,.cls-47,.cls-48,.cls-49,.cls-5,.cls-50,.cls-51,.cls-52,.cls-53,.cls-54,.cls-55,.cls-56,.cls-57,.cls-58,.cls-59,.cls-6,.cls-60,.cls-61,.cls-62,.cls-66,.cls-67,.cls-68,.cls-69,.cls-70{stroke-miterlimit:10;}.cls-3{stroke-width:3px;}.cls-4{fill:#fff;}.cls-5,.cls-6{stroke:#38537e;}.cls-5{stroke-width:8px;}.cls-6{stroke-width:4px;}.cls-7{fill:#38537e;}.cls-8{fill:#d9ddde;}.cls-9{fill:url(#linear-gradient);}.cls-10{fill:url(#linear-gradient-2);}.cls-11{fill:url(#linear-gradient-3);}.cls-12{stroke:url(#linear-gradient-4);}.cls-13{stroke:url(#linear-gradient-5);}.cls-14{stroke:url(#linear-gradient-6);}.cls-15{stroke:url(#linear-gradient-7);}.cls-16{stroke:url(#linear-gradient-8);}.cls-17{stroke:url(#linear-gradient-9);}.cls-18{stroke:url(#linear-gradient-10);}.cls-19{stroke:url(#linear-gradient-11);}.cls-20{stroke:url(#linear-gradient-12);}.cls-21{stroke:url(#linear-gradient-13);}.cls-22{stroke:url(#linear-gradient-14);}.cls-23{stroke:url(#linear-gradient-15);}.cls-24{stroke:url(#linear-gradient-16);}.cls-25{stroke:url(#linear-gradient-17);}.cls-26{stroke:url(#linear-gradient-18);}.cls-27{stroke:url(#linear-gradient-19);}.cls-28{stroke:url(#linear-gradient-20);}.cls-29{stroke:url(#linear-gradient-21);}.cls-30{stroke:url(#linear-gradient-22);}.cls-31{stroke:url(#linear-gradient-23);}.cls-32{stroke:url(#linear-gradient-24);}.cls-33{stroke:url(#linear-gradient-25);}.cls-34{stroke:url(#linear-gradient-26);}.cls-35{stroke:url(#linear-gradient-27);}.cls-36{stroke:url(#linear-gradient-28);}.cls-37{stroke:url(#linear-gradient-29);}.cls-38{stroke:url(#linear-gradient-30);}.cls-39{stroke:url(#linear-gradient-31);}.cls-40{stroke:url(#linear-gradient-32);}.cls-41{stroke:url(#linear-gradient-33);}.cls-42{stroke:url(#linear-gradient-34);}.cls-43{stroke:url(#linear-gradient-35);}.cls-44{stroke:url(#linear-gradient-36);}.cls-45{stroke:url(#linear-gradient-37);}.cls-46{stroke:url(#linear-gradient-38);}.cls-47{stroke:url(#linear-gradient-39);}.cls-48{stroke:url(#linear-gradient-40);}.cls-49{stroke:url(#linear-gradient-41);}.cls-50{stroke:url(#linear-gradient-42);}.cls-51{stroke:url(#linear-gradient-43);}.cls-52{stroke:url(#linear-gradient-44);}.cls-53{stroke:url(#linear-gradient-45);}.cls-54{stroke:url(#linear-gradient-46);}.cls-55{stroke:url(#linear-gradient-47);}.cls-56{stroke:url(#linear-gradient-48);}.cls-57{stroke:url(#linear-gradient-49);}.cls-58{stroke:url(#linear-gradient-50);}.cls-59{stroke:url(#linear-gradient-51);}.cls-60{stroke:url(#linear-gradient-52);}.cls-61{stroke:url(#linear-gradient-53);}.cls-62{stroke:url(#linear-gradient-54);}.cls-63{fill:url(#linear-gradient-55);}.cls-64{fill:url(#linear-gradient-56);}.cls-65{fill:#fffffa;}.cls-66,.cls-67,.cls-68{stroke-width:2px;}.cls-66{stroke:url(#linear-gradient-57);}.cls-67{stroke:url(#linear-gradient-58);}.cls-68{stroke:url(#linear-gradient-59);}.cls-69{font-size:35.71px;fill:#e8dd61;}.cls-69,.cls-70{font-family:CambriaMath, Cambria Math;}.cls-70{font-size:40px;stroke:#a84b44;}</style><linearGradient id="linear-gradient" x1="169.4" y1="191.85" x2="339.17" y2="191.85" gradientUnits="userSpaceOnUse"><stop offset="0" stop-color="#404b61"/><stop offset="0.49" stop-color="#3c4860"/><stop offset="1" stop-color="#2f3e5c"/></linearGradient><linearGradient id="linear-gradient-2" x1="99.03" y1="311.02" x2="286.85" y2="311.02" xlink:href="#linear-gradient"/><linearGradient id="linear-gradient-3" x1="156.51" y1="265.58" x2="344.33" y2="265.58" xlink:href="#linear-gradient"/><linearGradient id="linear-gradient-4" x1="185.63" y1="296.16" x2="374.37" y2="296.16" xlink:href="#linear-gradient"/><linearGradient id="linear-gradient-5" x1="167.11" y1="260.92" x2="181.52" y2="260.92" xlink:href="#linear-gradient"/><linearGradient id="linear-gradient-6" x1="212.88" y1="291.66" x2="223.6" y2="291.66" xlink:href="#linear-gradient"/><linearGradient id="linear-gradient-7" x1="225.34" y1="291.66" x2="235.75" y2="291.66" xlink:href="#linear-gradient"/><linearGradient id="linear-gradient-8" x1="237.81" y1="291.66" x2="247.92" y2="291.66" xlink:href="#linear-gradient"/><linearGradient id="linear-gradient-9" x1="250.27" y1="291.66" x2="260.07" y2="291.66" xlink:href="#linear-gradient"/><linearGradient id="linear-gradient-10" x1="262.72" y1="291.66" x2="272.23" y2="291.66" xlink:href="#linear-gradient"/><linearGradient id="linear-gradient-11" x1="348.24" y1="291.66" x2="363.44" y2="291.66" xlink:href="#linear-gradient"/><linearGradient id="linear-gradient-12" x1="336.09" y1="291.66" x2="346.81" y2="291.66" xlink:href="#linear-gradient"/><linearGradient id="linear-gradient-13" x1="323.94" y1="291.66" x2="334.35" y2="291.66" xlink:href="#linear-gradient"/><linearGradient id="linear-gradient-14" x1="311.79" y1="291.66" x2="321.89" y2="291.66" xlink:href="#linear-gradient"/><linearGradient id="linear-gradient-15" x1="299.62" y1="291.66" x2="309.42" y2="291.66" xlink:href="#linear-gradient"/><linearGradient id="linear-gradient-16" x1="287.46" y1="291.66" x2="296.97" y2="291.66" xlink:href="#linear-gradient"/><linearGradient id="linear-gradient-17" x1="275.27" y1="291.66" x2="284.56" y2="291.66" xlink:href="#linear-gradient"/><linearGradient id="linear-gradient-18" x1="193.57" y1="298.24" x2="213.18" y2="298.24" xlink:href="#linear-gradient"/><linearGradient id="linear-gradient-19" x1="342.12" y1="298.24" x2="366.13" y2="298.24" xlink:href="#linear-gradient"/><linearGradient id="linear-gradient-20" x1="329.57" y1="298.24" x2="340.38" y2="298.24" xlink:href="#linear-gradient"/><linearGradient id="linear-gradient-21" x1="317" y1="298.24" x2="327.5" y2="298.24" xlink:href="#linear-gradient"/><linearGradient id="linear-gradient-22" x1="304.44" y1="298.24" x2="314.64" y2="298.24" xlink:href="#linear-gradient"/><linearGradient id="linear-gradient-23" x1="291.88" y1="298.24" x2="301.76" y2="298.24" xlink:href="#linear-gradient"/><linearGradient id="linear-gradient-24" x1="190.69" y1="305.08" x2="211.07" y2="305.08" xlink:href="#linear-gradient"/><linearGradient id="linear-gradient-25" x1="212.86" y1="305.08" x2="224.06" y2="305.08" xlink:href="#linear-gradient"/><linearGradient id="linear-gradient-26" x1="226.16" y1="305.08" x2="293.63" y2="305.08" xlink:href="#linear-gradient"/><linearGradient id="linear-gradient-27" x1="296.65" y1="305.08" x2="306.92" y2="305.08" xlink:href="#linear-gradient"/><linearGradient id="linear-gradient-28" x1="309.64" y1="305.08" x2="320.22" y2="305.08" xlink:href="#linear-gradient"/><linearGradient id="linear-gradient-29" x1="322.63" y1="305.08" x2="333.52" y2="305.08" xlink:href="#linear-gradient"/><linearGradient id="linear-gradient-30" x1="335.61" y1="305.08" x2="346.82" y2="305.08" xlink:href="#linear-gradient"/><linearGradient id="linear-gradient-31" x1="348.59" y1="305.08" x2="368.98" y2="305.08" xlink:href="#linear-gradient"/><linearGradient id="linear-gradient-32" x1="279.41" y1="298.24" x2="288.92" y2="298.24" xlink:href="#linear-gradient"/><linearGradient id="linear-gradient-33" x1="266.46" y1="298.24" x2="276.15" y2="298.24" xlink:href="#linear-gradient"/><linearGradient id="linear-gradient-34" x1="253.6" y1="298.24" x2="263.58" y2="298.24" xlink:href="#linear-gradient"/><linearGradient id="linear-gradient-35" x1="240.72" y1="298.24" x2="251.02" y2="298.24" xlink:href="#linear-gradient"/><linearGradient id="linear-gradient-36" x1="227.86" y1="298.24" x2="238.46" y2="298.24" xlink:href="#linear-gradient"/><linearGradient id="linear-gradient-37" x1="214.98" y1="298.24" x2="225.9" y2="298.24" xlink:href="#linear-gradient"/><linearGradient id="linear-gradient-38" x1="198.78" y1="285.78" x2="205.59" y2="285.78" xlink:href="#linear-gradient"/><linearGradient id="linear-gradient-39" x1="206.84" y1="285.78" x2="217.39" y2="285.78" xlink:href="#linear-gradient"/><linearGradient id="linear-gradient-40" x1="218.93" y1="285.78" x2="229.19" y2="285.78" xlink:href="#linear-gradient"/><linearGradient id="linear-gradient-41" x1="231.01" y1="285.78" x2="240.98" y2="285.78" xlink:href="#linear-gradient"/><linearGradient id="linear-gradient-42" x1="243.09" y1="285.78" x2="252.78" y2="285.78" xlink:href="#linear-gradient"/><linearGradient id="linear-gradient-43" x1="255.18" y1="285.78" x2="264.59" y2="285.78" xlink:href="#linear-gradient"/><linearGradient id="linear-gradient-44" x1="267.25" y1="285.78" x2="276.4" y2="285.78" xlink:href="#linear-gradient"/><linearGradient id="linear-gradient-45" x1="279.34" y1="285.78" x2="288.39" y2="285.78" xlink:href="#linear-gradient"/><linearGradient id="linear-gradient-46" x1="291.15" y1="285.78" x2="300.46" y2="285.78" xlink:href="#linear-gradient"/><linearGradient id="linear-gradient-47" x1="302.95" y1="285.78" x2="312.55" y2="285.78" xlink:href="#linear-gradient"/><linearGradient id="linear-gradient-48" x1="314.74" y1="285.78" x2="324.63" y2="285.78" xlink:href="#linear-gradient"/><linearGradient id="linear-gradient-49" x1="326.55" y1="285.78" x2="336.71" y2="285.78" xlink:href="#linear-gradient"/><linearGradient id="linear-gradient-50" x1="338.35" y1="285.78" x2="348.8" y2="285.78" xlink:href="#linear-gradient"/><linearGradient id="linear-gradient-51" x1="350.15" y1="285.78" x2="360.88" y2="285.78" xlink:href="#linear-gradient"/><linearGradient id="linear-gradient-52" x1="185.59" y1="311.02" x2="374.41" y2="311.02" xlink:href="#linear-gradient"/><linearGradient id="linear-gradient-53" x1="173.51" y1="191.85" x2="327.32" y2="191.85" xlink:href="#linear-gradient"/><linearGradient id="linear-gradient-54" x1="208.49" y1="221.89" x2="351.23" y2="221.89" xlink:href="#linear-gradient"/><linearGradient id="linear-gradient-55" x1="174.34" y1="352.01" x2="330.16" y2="352.01" xlink:href="#linear-gradient"/><linearGradient id="linear-gradient-56" x1="215.94" y1="360.1" x2="348.7" y2="360.1" xlink:href="#linear-gradient"/><linearGradient id="linear-gradient-57" x1="230.25" y1="221.9" x2="232.25" y2="221.9" xlink:href="#linear-gradient"/><linearGradient id="linear-gradient-58" x1="221.24" y1="222.9" x2="342.24" y2="222.9" xlink:href="#linear-gradient"/><linearGradient id="linear-gradient-59" x1="200.69" y1="191.33" x2="306.53" y2="191.33" xlink:href="#linear-gradient"/></defs><title>факультет (2)</title><path class="cls-1" d="M249.82,63.66c102.11,0,184.88,82.77,184.88,184.87A184.88,184.88,0,0,1,249.82,433.41C147.72,433.41,65,350.64,65,248.53S147.72,63.66,249.82,63.66Z" transform="translate(29.58 30.73)"/><path class="cls-2" d="M247.16,20.51c126.11,0,228.34,102.23,228.34,228.33S373.27,477.17,247.16,477.17,18.83,375,18.83,248.84,121.06,20.51,247.16,20.51Zm187.54,228c0-102.1-82.77-184.87-184.88-184.87S65,146.43,65,248.53s82.77,184.88,184.87,184.88A184.88,184.88,0,0,0,434.7,248.53Z" transform="translate(29.58 30.73)"/><path class="cls-3" d="M475.5,248.84c0,126.11-102.23,228.33-228.34,228.33S18.83,375,18.83,248.84,121.06,20.51,247.16,20.51,475.5,122.74,475.5,248.84Z" transform="translate(29.58 30.73)"/><path class="cls-3" d="M434.7,248.53A184.88,184.88,0,0,1,249.82,433.41C147.72,433.41,65,350.64,65,248.53S147.72,63.66,249.82,63.66,434.7,146.43,434.7,248.53Z" transform="translate(29.58 30.73)"/><path class="cls-4" d="M394.79,147.44V322.6A769.67,769.67,0,0,0,251.44,425.39a792.07,792.07,0,0,0-68.94-54.22A792.86,792.86,0,0,0,104,322.73V147.57c11.7,4.77,24.25,10.45,37.36,17.23,13.47,7,25.65,14.1,36.54,21.06L323,185.74c10.58-7,22.41-14.11,35.49-21.07C371.23,157.89,383.42,152.21,394.79,147.44Z" transform="translate(29.58 30.73)"/><polyline class="cls-5" points="133.57 178.3 133.57 353.46 133.57 353.71"/><path class="cls-6" d="M252.58,426.4l-1.14-1a792.07,792.07,0,0,0-68.94-54.22A792.86,792.86,0,0,0,104,322.73l-.82-.44" transform="translate(29.58 30.73)"/><path class="cls-6" d="M177.89,185.86c-10.89-7-23.07-14.1-36.54-21.06C128.24,158,115.69,152.34,104,147.57" transform="translate(29.58 30.73)"/><polyline class="cls-5" points="424.37 178.17 424.37 353.33 424.37 353.58"/><path class="cls-6" d="M250.47,426.27l1-.88A769.67,769.67,0,0,1,394.79,322.6l.79-.44" transform="translate(29.58 30.73)"/><path class="cls-6" d="M323,185.74c10.58-7,22.41-14.11,35.49-21.07,12.73-6.78,24.92-12.46,36.29-17.23" transform="translate(29.58 30.73)"/><line class="cls-6" x1="207.47" y1="216.59" x2="352.59" y2="216.47"/><path class="cls-7" d="M109.11,348.85a417.78,417.78,0,0,1,46.2,28.59q11.08,7.88,21.69,16.38t20.58,17.75q-10.71-8.35-21.54-16.52c-7.23-5.42-14.51-10.78-21.89-16s-14.82-10.34-22.33-15.37S116.73,353.75,109.11,348.85Z" transform="translate(29.58 30.73)"/><path class="cls-7" d="M119.09,373.32c4.59,2.67,9.08,5.5,13.53,8.4s8.87,5.84,13.21,8.89,8.54,6.31,12.68,9.64,8.22,6.73,12.12,10.34c-4.42-3-8.75-6-13.06-9.09l-12.91-9.27c-2.13-1.57-4.33-3-6.49-4.58s-4.31-3.07-6.44-4.65C127.46,379.86,123.23,376.68,119.09,373.32Z" transform="translate(29.58 30.73)"/><path class="cls-7" d="M393.72,346.65Q382.29,354,371,361.5c-7.51,5-15,10.13-22.33,15.37s-14.66,10.57-21.89,16-14.39,10.95-21.54,16.52q10-9.24,20.58-17.75t21.69-16.38A417.78,417.78,0,0,1,393.72,346.65Z" transform="translate(29.58 30.73)"/><path class="cls-7" d="M383.74,371.12c-4.13,3.36-8.37,6.55-12.65,9.68-2.13,1.58-4.29,3.1-6.44,4.65s-4.36,3-6.49,4.58l-12.91,9.27c-4.32,3.07-8.64,6.14-13.06,9.09,3.91-3.61,8-7,12.12-10.34s8.38-6.51,12.68-9.64,8.76-6,13.21-8.89S379.15,373.79,383.74,371.12Z" transform="translate(29.58 30.73)"/><polygon class="cls-8" points="366.66 303.17 368.24 306.99 350.56 306.99 349.29 303.17 366.66 303.17"/><polygon class="cls-8" points="363.8 296.31 365.39 300.16 344 300.16 342.8 296.31 363.8 296.31"/><polygon class="cls-8" points="361.14 289.79 362.69 293.52 350.26 293.52 348.95 289.79 361.14 289.79"/><polygon class="cls-4" points="358.76 284.11 360.14 287.44 352.11 287.44 350.87 284.11 358.76 284.11"/><path class="cls-9" d="M326.82,147.53v88.63a8.65,8.65,0,0,1-8.66,8.66H182.67a8.66,8.66,0,0,1-8.66-8.66V147.53a8.66,8.66,0,0,1,8.66-8.66H318.16A8.66,8.66,0,0,1,326.82,147.53Zm-5.67,90.73v-94.2H179.41v94.2Z" transform="translate(29.58 30.73)"/><rect class="cls-8" x="208.99" y="174.79" width="141.74" height="94.2"/><polygon class="cls-8" points="346.93 284.11 348.1 287.44 340.07 287.44 339.03 284.11 346.93 284.11"/><polygon class="cls-8" points="344.95 303.17 346.14 306.99 337.3 306.99 336.27 303.17 344.95 303.17"/><polygon class="cls-8" points="344.89 289.79 346.12 293.52 337.84 293.52 336.76 289.79 344.89 289.79"/><polygon class="cls-8" points="338.6 296.31 339.72 300.16 331.16 300.16 330.21 296.31 338.6 296.31"/><polygon class="cls-8" points="335.09 284.11 336.05 287.44 328.02 287.44 327.19 284.11 335.09 284.11"/><polygon class="cls-8" points="332.7 289.79 333.7 293.53 325.42 293.52 324.57 289.79 332.7 289.79"/><polygon class="cls-8" points="331.93 303.17 332.88 306.99 324.04 306.99 323.25 303.17 331.93 303.17"/><polygon class="cls-8" points="326.01 296.31 326.88 300.16 318.33 300.16 317.61 296.31 326.01 296.31"/><polygon class="cls-8" points="323.25 284.11 324.01 287.44 315.98 287.44 315.35 284.11 323.25 284.11"/><polygon class="cls-8" points="320.5 289.79 321.28 293.52 312.99 293.52 312.38 289.79 320.5 289.79"/><polygon class="cls-8" points="318.91 303.17 319.62 306.99 310.78 306.99 310.22 303.17 318.91 303.17"/><polygon class="cls-8" points="313.41 296.31 314.05 300.16 305.49 300.16 305.01 296.31 313.41 296.31"/><polygon class="cls-8" points="311.41 284.11 311.96 287.44 303.93 287.44 303.52 284.11 311.41 284.11"/><polygon class="cls-8" points="308.31 289.79 308.85 293.52 300.57 293.52 300.18 289.79 308.31 289.79"/><polygon class="cls-8" points="305.88 303.17 306.36 306.99 297.52 306.99 297.2 303.17 305.88 303.17"/><polygon class="cls-8" points="300.81 296.31 301.21 300.16 292.66 300.16 292.42 296.31 300.81 296.31"/><polygon class="cls-8" points="299.57 284.11 299.91 287.44 291.88 287.44 291.68 284.11 299.57 284.11"/><polygon class="cls-8" points="296.12 289.79 296.43 293.53 288.15 293.52 287.99 289.79 296.12 289.79"/><polygon class="cls-8" points="292.86 303.17 293.1 306.99 226.8 306.99 227.75 303.17 236.43 303.17 292.86 303.17"/><polygon class="cls-8" points="288.23 296.31 288.4 300.16 279.91 300.16 279.91 296.31 288.23 296.31"/><polygon class="cls-8" points="287.73 284.11 287.87 287.44 279.84 287.44 279.84 284.11 287.73 284.11"/><polygon class="cls-8" points="283.9 289.79 284.04 293.52 275.77 293.52 275.77 289.79 283.9 289.79"/><rect class="cls-10" x="186.09" y="310.2" width="187.82" height="1.64"/><polygon class="cls-8" points="275.89 284.11 275.82 287.44 267.79 287.44 268 284.11 275.89 284.11"/><polygon class="cls-8" points="275.64 296.31 275.56 300.16 267 300.16 267.24 296.31 275.64 296.31"/><polygon class="cls-8" points="271.71 289.79 271.56 293.52 263.27 293.53 263.58 289.79 271.71 289.79"/><polygon class="cls-8" points="264.05 284.11 263.78 287.44 255.75 287.44 256.16 284.11 264.05 284.11"/><polygon class="cls-8" points="263.04 296.31 262.72 300.16 254.17 300.16 254.64 296.31 263.04 296.31"/><polygon class="cls-8" points="259.52 289.79 259.13 293.52 250.85 293.52 251.39 289.79 259.52 289.79"/><polygon class="cls-8" points="252.21 284.11 251.73 287.44 243.7 287.44 244.32 284.11 252.21 284.11"/><polygon class="cls-8" points="250.45 296.31 249.89 300.16 241.33 300.16 242.05 296.31 250.45 296.31"/><polygon class="cls-8" points="247.33 289.79 246.71 293.52 238.43 293.52 239.2 289.79 247.33 289.79"/><polygon class="cls-8" points="240.37 284.11 239.68 287.44 231.65 287.44 232.48 284.11 240.37 284.11"/><polygon class="cls-8" points="237.85 296.31 237.05 300.16 228.5 300.16 229.45 296.31 237.85 296.31"/><polygon class="cls-8" points="235.13 289.79 234.28 293.52 226 293.53 227.01 289.79 235.13 289.79"/><polygon class="cls-8" points="228.54 284.11 227.64 287.44 219.61 287.44 220.64 284.11 228.54 284.11"/><polygon class="cls-8" points="225.25 296.31 224.22 300.16 215.66 300.16 216.86 296.31 225.25 296.31"/><polygon class="cls-8" points="223.41 303.17 222.38 306.99 213.54 306.99 214.73 303.17 223.41 303.17"/><polygon class="cls-8" points="222.94 289.79 221.86 293.52 213.58 293.52 214.82 289.79 222.94 289.79"/><polygon class="cls-8" points="216.7 284.11 215.59 287.44 207.56 287.44 208.8 284.11 216.7 284.11"/><polygon class="cls-8" points="212.54 296.31 211.58 300.16 194.27 300.16 195.56 296.31 212.54 296.31"/><path class="cls-8" d="M180.31,259.06c.44,0,.78.22.7.46l-1,3a.75.75,0,0,1-.71.31H168.33c-.46,0-.8-.23-.7-.47l1.22-3a.79.79,0,0,1,.7-.3Z" transform="translate(29.58 30.73)"/><polygon class="cls-8" points="210.38 303.17 209.12 306.99 191.44 306.99 193.02 303.17 210.38 303.17"/><path class="cls-11" d="M334.22,265.58h-21l1.2,3.85h21.39Zm-2.66-6.52H319.37l1.31,3.73h12.43Zm-1-2.35-1.38-3.33h-7.89l1.24,3.33Zm-48.18,0-.55-3.33h-7.89l.41,3.33Zm1.45,8.87h-8.4l.48,3.85h8.56Zm-.42-2.79h8.29l-.78-3.73H282.8Zm11-6.08-.76-3.33h-7.9l.63,3.33Zm2,8.87H288l.72,3.85h8.55Zm-.59-2.79h8.28l-1-3.74H295Zm10.63-6.08-1-3.33h-7.9l.83,3.33Zm2.55,8.87h-8.39l.95,3.85h8.56Zm-.76-2.79h8.28l-1.23-3.73h-8.13Zm1.19-9.41,1,3.33h8l-1.17-3.33Zm-75.25,3.33.27-3.33h-7.89l-.41,3.33Zm11.86,8.87h-8.4l-.24,3.85H246ZM242,262.79l.15-3.73H234l-.31,3.74Zm4.26-6.08.07-3.33h-7.89l-.21,3.33Zm-.05,6.08h8.27l-.14-3.73h-8.13Zm12.1-6.08-.14-3.33h-7.89v3.33Zm.36,8.87h-8.32v3.85h8.49Zm-.08-2.79h8.28l-.31-3.74h-8.13Zm11.76-6.08-.34-3.33H262.1l.2,3.33Zm8.4,2.35H270.6l.39,3.73h8.28Zm-7.5,6.52h-8.39l.24,3.85h8.55Zm-75.56,0h-8.39l-1.2,3.85h8.56Zm-3.39-2.79,1.08-3.73h-8.12L184,262.79Zm5.78-6.08.9-3.33h-7.9l-1,3.33Zm10.21,8.87h-8.4l-1,3.85h8.55Zm-3.57-2.79.85-3.73h-8.12l-1,3.74Zm5.4-6.08.69-3.33H202.9l-.83,3.33Zm10.77,8.87h-8.4l-.72,3.85h8.56Zm-3.74-2.79.62-3.73h-8.13l-.77,3.73Zm5-6.08.48-3.33h-7.89l-.62,3.33Zm-.88,6.08h8.28l.39-3.73h-8.13Zm12.19,2.79h-8.4l-.47,3.85h8.55ZM174,256.71l1.29-3.33h-3.95L170,256.71Zm-5.73-5H332.58l11.75,27.79H156.51Zm14.7,13.9H166l-1.29,3.85H182Zm-3.7-2.79a.75.75,0,0,0,.71-.31l1-3c.08-.24-.26-.46-.7-.46H169.55a.79.79,0,0,0-.7.3l-1.22,3c-.1.24.24.47.7.47ZM178,256.71h8l1.11-3.33h-7.9Zm160.68,19.55-1.58-3.82H319.71l1.27,3.82Zm-22.1,0-1.19-3.82h-8.68l1,3.82Zm-13.26,0-.95-3.82h-8.68l.79,3.82Zm-13.26,0-.71-3.82h-8.69l.56,3.82Zm-13.26,0-.48-3.82h-8.68l.32,3.82Zm-13.26,0-.24-3.82H198.17l-.95,3.82Zm-70.72,0,1-3.82h-8.68L184,276.26Zm-13.26,0,1.26-3.82H163.44l-1.58,3.82Z" transform="translate(29.58 30.73)"/><polygon class="cls-8" points="204.86 284.11 203.57 287.44 199.53 287.44 200.91 284.11 204.86 284.11"/><polyline class="cls-12" points="373.91 310.2 362.16 282.41 280 282.41 197.84 282.41 186.09 310.2"/><path class="cls-13" d="M169.55,259.06h10.76c.44,0,.78.22.7.46l-1,3a.75.75,0,0,1-.71.31H168.33c-.46,0-.8-.23-.7-.47l1.22-3A.79.79,0,0,1,169.55,259.06Z" transform="translate(29.58 30.73)"/><polygon class="cls-14" points="214.82 289.79 222.94 289.79 221.86 293.52 213.58 293.52 214.82 289.79"/><polygon class="cls-15" points="227.01 289.79 235.13 289.79 234.28 293.52 226 293.53 227.01 289.79"/><polygon class="cls-16" points="239.2 289.79 247.33 289.79 246.71 293.52 238.43 293.52 239.2 289.79"/><polygon class="cls-17" points="251.39 289.79 259.52 289.79 259.13 293.52 250.85 293.52 251.39 289.79"/><polygon class="cls-18" points="263.58 289.79 271.71 289.79 271.56 293.52 263.27 293.53 263.58 289.79"/><polygon class="cls-19" points="361.14 289.79 348.95 289.79 350.26 293.52 362.69 293.52 361.14 289.79"/><polygon class="cls-20" points="344.89 289.79 336.76 289.79 337.84 293.52 346.12 293.52 344.89 289.79"/><polygon class="cls-21" points="332.7 289.79 324.57 289.79 325.42 293.52 333.7 293.53 332.7 289.79"/><polygon class="cls-22" points="320.5 289.79 312.38 289.79 312.99 293.52 321.28 293.52 320.5 289.79"/><polygon class="cls-23" points="308.31 289.79 300.18 289.79 300.57 293.52 308.85 293.52 308.31 289.79"/><polygon class="cls-24" points="296.12 289.79 287.99 289.79 288.15 293.52 296.43 293.53 296.12 289.79"/><polygon class="cls-25" points="275.77 289.79 283.9 289.79 284.04 293.52 275.77 293.52 275.77 289.79"/><polygon class="cls-26" points="195.56 296.31 212.54 296.31 211.58 300.16 194.27 300.16 195.56 296.31"/><polygon class="cls-27" points="363.8 296.31 342.8 296.31 344 300.16 365.39 300.16 363.8 296.31"/><polygon class="cls-28" points="338.6 296.31 330.21 296.31 331.16 300.16 339.72 300.16 338.6 296.31"/><polygon class="cls-29" points="326.01 296.31 317.61 296.31 318.33 300.16 326.88 300.16 326.01 296.31"/><polygon class="cls-30" points="313.41 296.31 305.01 296.31 305.49 300.16 314.05 300.16 313.41 296.31"/><polygon class="cls-31" points="300.81 296.31 292.42 296.31 292.66 300.16 301.21 300.16 300.81 296.31"/><polygon class="cls-32" points="193.02 303.17 210.38 303.17 209.12 306.99 191.44 306.99 193.02 303.17"/><polygon class="cls-33" points="214.73 303.17 223.41 303.17 222.38 306.99 213.54 306.99 214.73 303.17"/><polygon class="cls-34" points="227.75 303.17 236.43 303.17 292.86 303.17 293.1 306.99 226.8 306.99 227.75 303.17"/><polygon class="cls-35" points="297.2 303.17 305.88 303.17 306.36 306.99 297.52 306.99 297.2 303.17"/><polygon class="cls-36" points="310.22 303.17 318.91 303.17 319.62 306.99 310.78 306.99 310.22 303.17"/><polygon class="cls-37" points="323.25 303.17 331.93 303.17 332.88 306.99 324.04 306.99 323.25 303.17"/><polygon class="cls-38" points="336.27 303.17 344.95 303.17 346.14 306.99 337.3 306.99 336.27 303.17"/><polygon class="cls-39" points="349.29 303.17 366.66 303.17 368.24 306.99 350.56 306.99 349.29 303.17"/><polygon class="cls-40" points="288.23 296.31 279.91 296.31 279.91 300.16 288.4 300.16 288.23 296.31"/><polygon class="cls-41" points="275.64 296.31 267.24 296.31 267 300.16 275.56 300.16 275.64 296.31"/><polygon class="cls-42" points="263.04 296.31 254.64 296.31 254.17 300.16 262.72 300.16 263.04 296.31"/><polygon class="cls-43" points="250.45 296.31 242.05 296.31 241.33 300.16 249.89 300.16 250.45 296.31"/><polygon class="cls-44" points="237.85 296.31 229.45 296.31 228.5 300.16 237.05 300.16 237.85 296.31"/><polygon class="cls-45" points="225.25 296.31 216.86 296.31 215.66 300.16 224.22 300.16 225.25 296.31"/><polygon class="cls-46" points="199.53 287.44 200.91 284.11 204.86 284.11 203.57 287.44 199.53 287.44"/><polygon class="cls-47" points="208.8 284.11 216.7 284.11 215.59 287.44 207.56 287.44 208.8 284.11"/><polygon class="cls-48" points="220.64 284.11 228.54 284.11 227.64 287.44 219.61 287.44 220.64 284.11"/><polygon class="cls-49" points="232.48 284.11 240.37 284.11 239.68 287.44 231.65 287.44 232.48 284.11"/><polygon class="cls-50" points="244.32 284.11 252.21 284.11 251.73 287.44 243.7 287.44 244.32 284.11"/><polygon class="cls-51" points="256.16 284.11 264.05 284.11 263.78 287.44 255.75 287.44 256.16 284.11"/><polygon class="cls-52" points="268 284.11 275.89 284.11 275.82 287.44 267.79 287.44 268 284.11"/><polygon class="cls-53" points="279.84 284.11 287.73 284.11 287.87 287.44 279.84 287.44 279.84 284.11"/><polygon class="cls-54" points="291.68 284.11 299.57 284.11 299.91 287.44 291.88 287.44 291.68 284.11"/><polygon class="cls-55" points="303.52 284.11 311.41 284.11 311.96 287.44 303.93 287.44 303.52 284.11"/><polygon class="cls-56" points="315.35 284.11 323.25 284.11 324.01 287.44 315.98 287.44 315.35 284.11"/><polygon class="cls-57" points="327.19 284.11 335.09 284.11 336.05 287.44 328.02 287.44 327.19 284.11"/><polygon class="cls-58" points="339.03 284.11 346.93 284.11 348.1 287.44 340.07 287.44 339.03 284.11"/><polygon class="cls-59" points="350.87 284.11 358.76 284.11 360.14 287.44 352.11 287.44 350.87 284.11"/><rect class="cls-60" x="186.09" y="310.2" width="187.82" height="1.64"/><path class="cls-61" d="M182.67,244.82H318.16a8.65,8.65,0,0,0,8.66-8.66V147.53a8.66,8.66,0,0,0-8.66-8.66H182.67a8.66,8.66,0,0,0-8.66,8.66v88.63A8.66,8.66,0,0,0,182.67,244.82Z" transform="translate(29.58 30.73)"/><rect class="cls-62" x="208.99" y="174.79" width="141.74" height="94.2"/><path id="_Составной_контур_" data-name="&lt;Составной контур&gt;" class="cls-63" d="M185.25,329.46l-5.45,3.89-5.45,3.89a58.81,58.81,0,0,0,4.61,6.7,65.52,65.52,0,0,0,5.66,6.25l7.33-1.53,7.33-1.53q1.5,1.25,3.11,2.44t3.32,2.29l-2.06,5.39-2.06,5.39a92.19,92.19,0,0,0,8.47,4.11q4.42,1.88,9.2,3.38l5.27-4,5.27-4q1.58.39,3.2.74t3.28.63l1.14.18,1.14.17,1.9,5.45,1.9,5.45q5.16.47,10.25.48t10.07-.43l1.81-5.45,1.81-5.45q2.23-.33,4.42-.76t4.32-1l5.34,4,5.34,4q4.68-1.47,9.08-3.34a91.59,91.59,0,0,0,8.47-4.11l-2.14-5.4L299,352q1.69-1.1,3.29-2.27t3.09-2.42l7.35,1.55,7.35,1.55a62.83,62.83,0,0,0,5.53-6.19,57.11,57.11,0,0,0,4.53-6.74l-5.52-3.91-5.52-3.91C319.47,328.85,184.76,328.41,185.25,329.46Zm93.81-.09a33.78,33.78,0,0,1-8.43,5.4,45.56,45.56,0,0,1-26.36,3.13,38.44,38.44,0,0,1-19.17-8.8C225,329,279.2,329.24,279.06,329.36Z" transform="translate(29.58 30.73)"/><polyline class="cls-64" points="215.94 359.84 254.85 359.99 282.32 360.1 348.7 360.36"/><path class="cls-65" d="M229.41,328.88c.06.42.5.46.85.45a4.94,4.94,0,0,0,1.44-.28c.22-.08.86-.26.94-.54.37-1.27-2.72-.21-3.07,0a.77.77,0,0,0-.23,1.24c.49.62,1.34.43,2,.24.52-.14,1.48-.37,1.56-1a.87.87,0,0,0-.78-.87,4.33,4.33,0,0,0-2.45.44c-.53.24-1,.56-1,1.18l2.9-.78A1.63,1.63,0,0,0,230,328c-.85,0-2.31.29-2.79,1.11-.29.49,1.78,0,1.91,0,.36-.12,1.45-.49,1.14-1.08s-1.92.09-2.27.25-.86.4-.91.93c0,.27,2.82,0,2.9-.78l-.34.12-2.27.25.08.15.82-.41-.1,0H230l-1,.39.13,0-1.05.16c.2,0,.47.45.56.61.24.38,1.22.08,1.55,0s1.31-.31,1.35-.77.6-.26-.73,0l-1.05.16c.12,0,.37.48.24.6l1.2-.52-.11,0,1.3-.15a.65.65,0,0,1-.3-.87l-.33.27.09,0-1.38.48.11,0-.91.06s.15,0,.13.1l2.38-.82H232l.42.07a.17.17,0,0,1-.14-.21c-.07-.48-3,.12-2.9.78Z" transform="translate(29.58 30.73)"/><path class="cls-65" d="M227.44,329.49h.17a2.34,2.34,0,0,0,1.91-.79c.37-.57-.31-.86-.79-.86h-.17a2.34,2.34,0,0,0-1.91.79c-.37.57.31.86.79.86Z" transform="translate(29.58 30.73)"/><path class="cls-65" d="M257.58,329.11l.06.51c0,.21.4.28.53.3a28.2,28.2,0,0,0,6-.26c.52,0,3.12-1.17,1.51-1.39a15.79,15.79,0,0,0-9.35,1.57c-1.44.69.22,1.14,1,.89a5.2,5.2,0,0,0,2.93-1.7c.32-.34-.07-.63-.42-.65a15.26,15.26,0,0,0-6.91,1.2l1.67.6,1.76-1.4c.43-.34.39-.77-.22-.83a7.13,7.13,0,0,0-5.43,1.49c-1.1.82.84.82,1.29.72a28.93,28.93,0,0,0,6.32-2.18c.29-.14,1-.75.31-.94-3.57-1-7.93.42-11.37,1.43l1.49.54c.88-.93,2.21-1.39,3.23-2.18s-.35-.89-.9-.8a12,12,0,0,0-5.93,2.53c-.88.7.35.88.9.8a41.67,41.67,0,0,0,6.88-1.86l-.69-1a12.4,12.4,0,0,0-4.18,2.29c-1,.86.77.85,1.29.72l5.43-1.37-.69-1a25.48,25.48,0,0,0-6.09,3.09c-1.23.84,1.21.8,1.67.6a13.87,13.87,0,0,0,2.83-1.58c.74-.52,0-.83-.54-.84-3.22,0-6.46.86-9.67.16l-1.51,1.39c1.87-.1,2.24.28,3.92,0,.17,0,2.31-.74,1.59-1.2-2.7-1.69-6.25-1.24-9.31-1l-.83,1.37a12.21,12.21,0,0,1,3.85-.3c.68,0,3-1.32,1.51-1.39a22.7,22.7,0,0,0-5.89.45c-.44.09-2.69,1.1-1.15,1.35a24.92,24.92,0,0,0,6.77.17c.53-.05,2.63-1.09,1.15-1.35a16,16,0,0,0-9,.75c-.49.19-1.51,1.05-.38,1.15a29.25,29.25,0,0,0,7.17-.26c.47-.07,2.67-1.14,1.15-1.35a32,32,0,0,0-7.79-.14c-.51,0-2.64,1.16-1.15,1.35a25.6,25.6,0,0,0,3.48.33l1.83-1.37-1.94-.12c-.75,0-3.35,1.28-1.83,1.37l1.94.12c.75,0,3.35-1.28,1.83-1.37a25.6,25.6,0,0,1-3.48-.33l-1.15,1.35a20.76,20.76,0,0,1,6.43.18l1.15-1.35a17.8,17.8,0,0,1-5.81.22l-.38,1.15a10.25,10.25,0,0,1,6.07-.29l1.15-1.35a15.83,15.83,0,0,1-5.41-.21l-1.15,1.35,4.53-.4,1.51-1.39a21.79,21.79,0,0,0-4.57.37c-.77.14-2.69,1.51-.83,1.37,2.5-.19,5.55-.74,7.79.66l1.59-1.2s-2.87-.07-3.2,0c-.55,0-3.11,1-1.51,1.39,2.18.48,6.08.86,8.14,0l1.67.6a15.58,15.58,0,0,1,4.9-2.45c1.63-.57.57-1.36-.69-1L249,328.29l1.29.72,3-1.64c1.6-.57.59-1.44-.69-1a37.41,37.41,0,0,1-6.09,1.7l.9.8,3.19-1.47-.9-.8c-1.25,1-2.54,1.39-3.62,2.53-.71.76,1.22.62,1.49.54,1.67-.49,3.61-1.41,5.33-1.24s-.35.41-1.21.6l1.29.72q.68-1.21-.65.18c-1.18.94,1.21.79,1.67.6l3-.93,1,.89,5.79-.81,1.51-1.39c-.19,0-4.81.5-4.86.08-.08-.75-3-.16-2.9.78Z" transform="translate(29.58 30.73)"/><path class="cls-65" d="M227.07,328.88c1,0,3.12-1.43,1.18-1.43-1,0-3.12,1.43-1.18,1.43Z" transform="translate(29.58 30.73)"/><path class="cls-65" d="M227,329.14h.08a2.38,2.38,0,0,0,1.91-.79c.37-.56-.32-.83-.78-.83h-.08a2.38,2.38,0,0,0-1.91.79c-.37.56.32.83.78.83Z" transform="translate(29.58 30.73)"/><path class="cls-65" d="M227,329c.87,0,3.14-1.29,1.22-1.29-.87,0-3.14,1.29-1.22,1.29Z" transform="translate(29.58 30.73)"/><path class="cls-65" d="M227.27,329.42c1.61,0,2.26-2,.29-2-1.61,0-2.26,2-.29,2Z" transform="translate(29.58 30.73)"/><path class="cls-65" d="M228.41,328.82l.08-.08c.42-.42.34-.89-.27-1a2.5,2.5,0,0,0-2,.55l-.08.08c-.42.42-.34.89.27,1a2.5,2.5,0,0,0,2-.55Z" transform="translate(29.58 30.73)"/><path class="cls-65" d="M228.53,328.2v-.08c0-.22-.42-.36-.56-.39a2.44,2.44,0,0,0-1.08.07c-.54.14-1.26.46-1.26,1.1V329c0,.22.42.36.56.39a2.44,2.44,0,0,0,1.08-.07c.54-.14,1.26-.46,1.26-1.1Z" transform="translate(29.58 30.73)"/><path class="cls-65" d="M228.2,328.11V328c0-.21-.42-.32-.55-.35a2.61,2.61,0,0,0-1.08.08c-.5.13-1.27.43-1.27,1v.08c0,.21.42.32.55.35a2.61,2.61,0,0,0,1.08-.08c.5-.13,1.27-.43,1.27-1Z" transform="translate(29.58 30.73)"/><path class="cls-65" d="M244.61,332.75c3.63,2.41,8.6.82,12.15-1,1.7-.89-1-.78-1.68-.41-2.5,1.31-5.23,2.11-7.74.45-.69-.46-3.16.71-2.73,1Z" transform="translate(29.58 30.73)"/><path class="cls-65" d="M263.82,326.55l-.11,0-1.73.08c.44.24-.72,2.49-.85,2.8-.46,1.13,2.28.43,2.62.1,1.37-1.3,2.78-2.54,4.25-3.72l-2.53-.32a19.17,19.17,0,0,0-1.7,3.27c-.4,1,1.75.57,2,.47a5.06,5.06,0,0,0,3.16-2.78c.57-1.27-1.73-.88-2.26-.52-1.11.76-2.21,1.83-2.1,3.28a.55.55,0,0,0,.3.34c2.06.88,4.54-1.12,5.28-2.95.42-1.06-2-.52-2.36-.3a3.77,3.77,0,0,0-1.93,2.93c-.1.84,1.19.71,1.66.6a4.74,4.74,0,0,0,3.44-2.57c.68-1.43-2-.69-2.53-.32A3.3,3.3,0,0,0,267,329.5c-.07,1,1.52.7,2,.47a10.92,10.92,0,0,0,3.34-2.26c1.23-1.21-1.62-1.22-2.34-.54a7.13,7.13,0,0,0-1.86,2.77c-.41,1.06,2,.52,2.36.3a23.11,23.11,0,0,0,3.31-2.72l-2.53-.32a6.3,6.3,0,0,0-.79,1.87c-.29,1,1.68.61,2,.47a8.08,8.08,0,0,0,2.59-1.62c1.27-1.15-1.44-1.14-2.08-.74a3.54,3.54,0,0,0-1.5,1.64c-.43,1,1,1,1.56.82a5.85,5.85,0,0,0,2.88-1.62c1.23-1.25-1.46-1.11-2.08-.74a2.33,2.33,0,0,0-1.15,1.18c-.47.95,1,1,1.56.82a5,5,0,0,0,2.2-1.21c1.27-1.16-1.45-1.14-2.08-.74a2.36,2.36,0,0,0-1,1c-.66,1.26,2.24,1,2.71.11l.12-.2-2.08-.74-.27.21,1.56.82.26-.35-2.08-.74-1,.62,1.56.82.61-.81-2.08-.74-1.42.88,2,.47.6-1.42c.73-1.3-2-.8-2.53-.32a19.59,19.59,0,0,1-2.79,2.32l2.36.3a3.91,3.91,0,0,1,1.29-1.89l-2.34-.54a5.49,5.49,0,0,1-2.17,1.52l2,.47a1.77,1.77,0,0,1,.88-1.71l-2.53-.32a1.56,1.56,0,0,1-1.14,1.14l1.66.6a1.75,1.75,0,0,1,.85-1.65l-2.36-.3a3.63,3.63,0,0,1-1.18,1.22l1.35,0,1.07-1.34-2.26-.52a2.36,2.36,0,0,1-1.62,1.61l2,.47a16.2,16.2,0,0,1,1.51-2.82c.85-1.3-2.08-.68-2.53-.32-1.47,1.18-2.89,2.42-4.25,3.72l2.62.1c.48-1.18,1.88-3.28.1-4a2.8,2.8,0,0,0-3,1.32c-.75,1.16,2.17,1,2.71.11Z" transform="translate(29.58 30.73)"/><path class="cls-65" d="M274.65,329.62a2.79,2.79,0,0,0,2.3-.89.8.8,0,0,0-.36-1.36,2,2,0,0,0-2,.55l.5-.29.77-.07h-.13a2,2,0,0,0-1.89.88.86.86,0,0,0,.87,1.17Z" transform="translate(29.58 30.73)"/><path class="cls-65" d="M273.75,328.93l0,.06a.14.14,0,0,0,.06.22c.18.2.61.14.86.12a4.53,4.53,0,0,0,1.67-.5,3.72,3.72,0,0,0,1.37-1.25c.25-.38-.9-.26-1-.25A3.38,3.38,0,0,0,275,328a1.88,1.88,0,0,0-.53.8c-.15.46,1,.26,1.15.23a4.73,4.73,0,0,0,1.11-.34c.18-.08.54-.22.6-.42a1.2,1.2,0,0,1,.29-.53l-2.73.4a2.48,2.48,0,0,1-.28.37c-.07.07-.44.31-.1.15l1.77-.41h-.08l.42.08-.05-.06.06.22,0-.06c.17-.46-1-.26-1.15-.23a4.73,4.73,0,0,0-1.11.34c-.18.08-.53.22-.6.42Z" transform="translate(29.58 30.73)"/><path class="cls-65" d="M276.68,329.45l.75-.58c.41-.32.83-.92.21-1.29a2.11,2.11,0,0,0-2.06.23l-.75.58c-.41.32-.83.92-.21,1.29a2.11,2.11,0,0,0,2.06-.23Z" transform="translate(29.58 30.73)"/><path class="cls-65" d="M277.65,328.81l.91-.75c.51-.42-.45-.47-.68-.46a3.63,3.63,0,0,0-1.94.69L275,329c-.51.42.45.47.68.46a3.63,3.63,0,0,0,1.94-.69Z" transform="translate(29.58 30.73)"/><path class="cls-65" d="M277.82,329.12l1.08-.84c.47-.37.31-.84-.25-.95a2.74,2.74,0,0,0-2,.55l-1.08.84c-.47.37-.31.84.25.95a2.74,2.74,0,0,0,2-.55Z" transform="translate(29.58 30.73)"/><path class="cls-65" d="M278.42,329.22a3.33,3.33,0,0,1,.62-.39c.44-.22,1.17-.78.73-1.33s-1.44-.38-1.94-.12a9.26,9.26,0,0,0-1.78,1.18.68.68,0,0,0,.32,1.21,2.3,2.3,0,0,0,2-.55Z" transform="translate(29.58 30.73)"/><path class="cls-65" d="M278.33,329.09a2.5,2.5,0,0,0,1.16-.95c.24-.43-1-.24-1.14-.21-.48.09-1.44.27-1.71.75-.07.13-.21.25,0,.12-.23.12-1,.52-.38.68a3.49,3.49,0,0,0,2-.39Z" transform="translate(29.58 30.73)"/><path class="cls-65" d="M278.88,328.76a2,2,0,0,0,.8-.69c.32-.55-.28-.73-.75-.72s-1.61.21-1.92.76q-.17.24.12,0c-.36.2-.9.74-.29,1a2.64,2.64,0,0,0,2-.31Z" transform="translate(29.58 30.73)"/><line class="cls-66" x1="231.25" y1="181.41" x2="231.25" y2="262.39"/><line class="cls-67" x1="221.24" y1="222.9" x2="342.24" y2="222.9"/><path class="cls-68" d="M201.67,192.76c1.06-4.71,2.11-9,3.11-12.84a36.88,36.88,0,0,1,3.56-9.25c1.52-2.72,2.75-4.86,4.67-5,2.42-.18,4.45,2.93,5.25,4.17.31.48,1.19,1.91,2.42,6.83.43,1.74.71,3.12,1.29,6.3,1,5.62,1.05,6.22,1.71,9.7.74,3.88,1.12,5.87,1.83,8.42a51.75,51.75,0,0,0,2.5,7.25c1.89,4.27,4.48,10.15,7.33,10s4.69-5.82,6-9.67a53.13,53.13,0,0,0,1.84-7.66c.61-3.2.47-3.44,1.16-7.67.16-1,.83-5.07,2-10.25,1.08-4.78,1.79-7,2-7.58a29.72,29.72,0,0,1,2.83-6.5c1.65-2.7,2.81-4.6,4.5-4.68,2.06-.09,3.74,2.61,5.24,5a25.3,25.3,0,0,1,2.76,6.15c2,6.6,2.13,9.59,4,17.84.41,1.82.12.43,2.08,8.42,1.17,4.77,1.36,5.61,2,7,.93,2.16,3.26,7.57,6.33,7.56,2.61,0,4.6-3.93,5.95-6.59a31.68,31.68,0,0,0,2.25-6.67c.74-2.88,1-4.36,2.08-10.42,0,0,.83-4.52,2-10.42.62-3.12.93-4.59,1.5-6.58a35.9,35.9,0,0,1,3-7.29c1.63-3,2.36-3.29,2.83-3.37,1.75-.31,3.46,1.88,4.33,3s2.09,3.08,3.56,8.75" transform="translate(29.58 30.73)"/><text class="cls-69" transform="matrix(-0.78, -0.63, 0.63, -0.78, 168.25, 437.76)">Ф</text><text class="cls-69" transform="matrix(-0.7, -0.71, 0.71, -0.7, 148.58, 421.83)">А</text><text class="cls-69" transform="translate(133.47 406.47) rotate(-127.88)">К</text><text class="cls-69" transform="translate(119.66 388.69) rotate(-121.51)">У</text><text class="cls-69" transform="translate(110.64 374.52) rotate(-116.15)">Л</text><text class="cls-69" transform="translate(100.34 353.43) rotate(-109.62)">Ь</text><text class="cls-69" transform="matrix(-0.25, -0.97, 0.97, -0.25, 94.49, 337.57)">Т</text><text class="cls-69" transform="matrix(-0.15, -0.99, 0.99, -0.15, 89.3, 317.74)">Е</text><text class="cls-69" transform="matrix(-0.04, -1, 1, -0.04, 86.3, 298.09)">Т</text><text class="cls-69" transform="translate(85.65 277.44) rotate(-88.17)"> </text><text class="cls-69" transform="translate(85.36 270.12) rotate(-82.74)">М</text><text class="cls-69" transform="matrix(0.25, -0.96, 0.97, 0.25, 89.11, 242.07)">А</text><text class="cls-69" transform="matrix(0.35, -0.93, 0.94, 0.35, 93.98, 223.18)">Т</text><text class="cls-69" transform="translate(101.12 203.94) rotate(-63.52)">Е</text><text class="cls-69" transform="translate(109.64 186.12) rotate(-56.23)">М</text><text class="cls-69" transform="matrix(0.66, -0.75, 0.75, 0.66, 125.52, 162.7)">А</text><text class="cls-69" transform="matrix(0.73, -0.68, 0.68, 0.73, 138.31, 147.98)">Т</text><text class="cls-69" transform="matrix(0.8, -0.59, 0.59, 0.81, 153.19, 133.94)">И</text><text class="cls-69" transform="matrix(0.87, -0.49, 0.49, 0.87, 172.49, 119.75)">К</text><text class="cls-69" transform="translate(192.02 108.64) rotate(-22.57)">И</text><text class="cls-69" transform="matrix(0.95, -0.31, 0.31, 0.95, 214.45, 99.67)">,</text><text class="cls-69" transform="translate(221.19 97.47) rotate(-15.83)"> </text><text class="cls-69" transform="matrix(0.98, -0.19, 0.19, 0.98, 228.11, 95.02)">Ф</text><text class="cls-69" transform="translate(254.88 90.32) rotate(-5.11)">І</text><text class="cls-69" transform="translate(265.91 89.17) rotate(-0.68)">З</text><text class="cls-69" transform="translate(284.62 88.76) rotate(5.62)">И</text><text class="cls-69" transform="translate(308.46 91.12) rotate(12.42)">К</text><text class="cls-69" transform="translate(330.43 95.86) rotate(19.2)">И</text><text class="cls-69" transform="matrix(0.91, 0.4, -0.4, 0.92, 353.18, 104.09)"> </text><text class="cls-69" transform="matrix(0.89, 0.44, -0.45, 0.9, 360.12, 107.08)">І</text><text class="cls-69" transform="translate(370.18 112.12) rotate(29.19)"> </text><text class="cls-69" transform="translate(376.8 115.47) rotate(33.63)">К</text><text class="cls-69" transform="matrix(0.76, 0.64, -0.64, 0.77, 395.01, 127.48)">О</text><text class="cls-69" transform="translate(412.42 141.82) rotate(47.59)">М</text><text class="cls-69" transform="translate(431.39 162.77) rotate(55.18)">П</text><text class="cls-69" transform="matrix(0.5, 0.86, -0.86, 0.5, 444.59, 182.28)">’</text><text class="cls-69" transform="matrix(0.41, 0.91, -0.91, 0.41, 448.85, 188.25)">Ю</text><text class="cls-69" transform="translate(461.61 217.09) rotate(73.2)">Т</text><text class="cls-69" transform="matrix(0.19, 0.98, -0.98, 0.19, 467.55, 236.71)">Е</text><text class="cls-69" transform="matrix(0.08, 0.99, -1, 0.08, 471.29, 256.26)">Р</text><text class="cls-69" transform="translate(473.08 275.74) rotate(91.79)">Н</text><text class="cls-69" transform="translate(472.39 299.46) rotate(99.02)">И</text><text class="cls-69" transform="translate(468.55 323.14) rotate(105.59)">Х</text><text class="cls-69" transform="matrix(-0.34, 0.94, -0.94, -0.34, 463, 342.25)"> </text><text class="cls-69" transform="translate(460.85 349.32) rotate(114.35)">Н</text><text class="cls-69" transform="matrix(-0.52, 0.85, -0.86, -0.52, 451.03, 370.98)">А</text><text class="cls-69" transform="translate(439.89 389.39) rotate(127.62)">У</text><text class="cls-69" transform="matrix(-0.69, 0.72, -0.72, -0.7, 427.3, 405.87)">К</text><text class="cls-70" transform="matrix(1, 0.03, -0.03, 1, 232.86, 156.91)">В<tspan x="24.45" y="0">Д</tspan><tspan x="50.65" y="0">П</tspan><tspan x="77.63" y="0">У</tspan></text><text class="cls-70" transform="translate(206.15 353.03)">Ф<tspan x="31.16" y="0">М</tspan><tspan x="63.78" y="0">Ф</tspan><tspan x="94.95" y="0">К</tspan><tspan x="120.95" y="0">Н</tspan></text></svg>